<?xml version="1.0" encoding="UTF-8" standalone="no"?>
<!-- Created with Inkscape (http://www.inkscape.org/) -->

<svg
   xmlns:osb="http://www.openswatchbook.org/uri/2009/osb"
   xmlns:dc="http://purl.org/dc/elements/1.1/"
   xmlns:cc="http://creativecommons.org/ns#"
   xmlns:rdf="http://www.w3.org/1999/02/22-rdf-syntax-ns#"
   xmlns:svg="http://www.w3.org/2000/svg"
   xmlns="http://www.w3.org/2000/svg"
   xmlns:sodipodi="http://sodipodi.sourceforge.net/DTD/sodipodi-0.dtd"
   xmlns:inkscape="http://www.inkscape.org/namespaces/inkscape"
   width="210mm"
   height="297mm"
   viewBox="0 0 744.09448819 1052.3622047"
   id="svg2"
   version="1.1"
   inkscape:version="0.91 r13725"
   sodipodi:docname="drawing.svg">
  <defs
     id="defs4">
    <linearGradient
       id="linearGradient4148"
       osb:paint="solid">
      <stop
         style="stop-color:#000000;stop-opacity:1;"
         offset="0"
         id="stop4150" />
    </linearGradient>
  </defs>
  <sodipodi:namedview
     id="base"
     pagecolor="#ffffff"
     bordercolor="#666666"
     borderopacity="1.0"
     inkscape:pageopacity="0.0"
     inkscape:pageshadow="2"
     inkscape:zoom="0.70297975"
     inkscape:cx="260.02876"
     inkscape:cy="423.57159"
     inkscape:document-units="px"
     inkscape:current-layer="layer1"
     showgrid="false"
     inkscape:window-width="1680"
     inkscape:window-height="995"
     inkscape:window-x="0"
     inkscape:window-y="27"
     inkscape:window-maximized="1" />
  <metadata
     id="metadata7">
    <rdf:RDF>
      <cc:Work
         rdf:about="">
        <dc:format>image/svg+xml</dc:format>
        <dc:type
           rdf:resource="http://purl.org/dc/dcmitype/StillImage" />
        <dc:title></dc:title>
      </cc:Work>
    </rdf:RDF>
  </metadata>
  <g
     inkscape:label="Camada 1"
     inkscape:groupmode="layer"
     id="layer1">
    <rect
       style="fill:#0000ff;fill-rule:evenodd;stroke:#000000;stroke-width:1.35226321px;stroke-linecap:butt;stroke-linejoin:miter;stroke-opacity:1"
       id="rect3344"
       width="676.79059"
       height="402.50485"
       x="-1254.3983"
       y="196.26744"
       ry="55.69455"
       rx="34.28949"
       inkscape:export-xdpi="90"
       inkscape:export-ydpi="90" />
    <rect
       style="fill:#ffffff;fill-rule:evenodd;stroke:none;stroke-width:1.00596714px;stroke-linecap:butt;stroke-linejoin:miter;stroke-opacity:1"
       id="rect3346"
       width="676.61243"
       height="105.70834"
       x="-1254.229"
       y="243.95924"
       rx="0"
       ry="0"
       inkscape:export-xdpi="90"
       inkscape:export-ydpi="90" />
    <rect
       style="fill:#0000ff;fill-rule:evenodd;stroke:#000000;stroke-width:1.35226321px;stroke-linecap:butt;stroke-linejoin:miter;stroke-opacity:1"
       id="rect3344-9"
       width="676.79059"
       height="402.50485"
       x="-1308.5513"
       y="370.29935"
       ry="55.69455"
       rx="34.28949"
       inkscape:export-xdpi="90"
       inkscape:export-ydpi="90" />
    <ellipse
       style="fill:none;stroke:#ffffff;stroke-width:8;stroke-miterlimit:4;stroke-dasharray:none;stroke-opacity:1"
       id="path4180"
       cx="-1203.4486"
       cy="462.01801"
       rx="68.280769"
       ry="66.858253"
       inkscape:export-xdpi="90"
       inkscape:export-ydpi="90" />
    <g
       style="font-style:normal;font-weight:normal;font-size:40px;line-height:125%;font-family:sans-serif;letter-spacing:0px;word-spacing:0px;fill:#ffffff;fill-opacity:1;stroke:none;stroke-width:1px;stroke-linecap:butt;stroke-linejoin:miter;stroke-opacity:1"
       id="flowRoot4169"
       transform="matrix(2.3333334,0,0,1.3333333,173.01604,326.22189)"
       inkscape:export-xdpi="90"
       inkscape:export-ydpi="90">
      <path
         d="m -589.63086,119.42075 -1.95312,0 -0.0195,-5.87891 q -2.05078,-0.0391 -4.10156,-0.46875 -2.05078,-0.44922 -4.12109,-1.32812 l 0,-3.51563 q 1.99219,1.25 4.02344,1.89453 2.05078,0.625 4.21875,0.64453 l 0,-8.90625 q -4.31641,-0.70312 -6.28907,-2.382809 -1.95312,-1.679687 -1.95312,-4.609375 0,-3.183593 2.1289,-5.019531 2.12891,-1.835937 6.11329,-2.109375 l 0,-4.589844 1.95312,0 0,4.53125 q 1.81641,0.07813 3.51563,0.390625 1.69921,0.292969 3.32031,0.820313 l 0,3.417969 q -1.6211,-0.820313 -3.33985,-1.269532 -1.69921,-0.449218 -3.49609,-0.527343 l 0,8.339843 q 4.43359,0.683594 6.52344,2.441409 2.08984,1.75781 2.08984,4.80469 0,3.30078 -2.22656,5.21484 -2.20703,1.89453 -6.38672,2.1875 l 0,5.91797 z m -1.95312,-20.917971 0,-8.007813 q -2.26563,0.253907 -3.45704,1.289063 -1.1914,1.035156 -1.1914,2.753906 0,1.679688 1.09375,2.617188 1.11328,0.9375 3.55469,1.347656 z m 1.95312,3.750001 0,8.45703 q 2.48047,-0.33203 3.73047,-1.40625 1.26953,-1.07422 1.26953,-2.83203 0,-1.71875 -1.21094,-2.73438 -1.1914,-1.01562 -3.78906,-1.48437 z"
         id="path4178"
         inkscape:connector-curvature="0"
         style="fill:#ffffff" />
    </g>
    <rect
       style="fill:none;stroke:#0000ff;stroke-width:30;stroke-miterlimit:4;stroke-dasharray:none;stroke-opacity:1"
       id="rect4182"
       width="497.88065"
       height="631.59717"
       x="122.33638"
       y="224.45784"
       inkscape:export-xdpi="90"
       inkscape:export-ydpi="90" />
    <path
       style="fill:none;fill-rule:evenodd;stroke:#0000ff;stroke-width:30;stroke-linecap:butt;stroke-linejoin:miter;stroke-miterlimit:4;stroke-dasharray:none;stroke-opacity:1"
       d="m 153.63174,329.43925 435.28992,2.84504 z"
       id="path4184"
       inkscape:connector-curvature="0"
       inkscape:export-xdpi="90"
       inkscape:export-ydpi="90" />
    <path
       style="fill:none;fill-rule:evenodd;stroke:#0000ff;stroke-width:30;stroke-linecap:butt;stroke-linejoin:miter;stroke-miterlimit:4;stroke-dasharray:none;stroke-opacity:1"
       d="m 153.63174,644.38454 435.28992,2.84504 z"
       id="path4184-5"
       inkscape:connector-curvature="0"
       inkscape:export-xdpi="90"
       inkscape:export-ydpi="90" />
    <path
       style="fill:none;fill-rule:evenodd;stroke:#0000ff;stroke-width:30;stroke-linecap:butt;stroke-linejoin:miter;stroke-miterlimit:4;stroke-dasharray:none;stroke-opacity:1"
       d="m 153.63174,749.36628 435.28992,2.84504 z"
       id="path4184-50"
       inkscape:connector-curvature="0"
       inkscape:export-xdpi="90"
       inkscape:export-ydpi="90" />
    <path
       style="fill:none;fill-rule:evenodd;stroke:#0000ff;stroke-width:30;stroke-linecap:butt;stroke-linejoin:miter;stroke-miterlimit:4;stroke-dasharray:none;stroke-opacity:1"
       d="m 153.63174,539.40277 435.28993,2.84504 z"
       id="path4184-0"
       inkscape:connector-curvature="0"
       inkscape:export-xdpi="90"
       inkscape:export-ydpi="90" />
    <path
       style="fill:none;fill-rule:evenodd;stroke:#0000ff;stroke-width:30;stroke-linecap:butt;stroke-linejoin:miter;stroke-miterlimit:4;stroke-dasharray:none;stroke-opacity:1"
       d="m 153.63174,434.42104 435.28993,2.84504 z"
       id="path4184-9"
       inkscape:connector-curvature="0"
       inkscape:export-xdpi="90"
       inkscape:export-ydpi="90" />
  </g>
</svg>
